<svg width="225" height="36" viewBox="0 0 225 36" fill="none" xmlns="http://www.w3.org/2000/svg">
<path d="M0 29.983V5.96732H4.06932L15.2099 22.895V5.96732H19.2793V29.983H15.2099L4.06932 13.0553V29.983H0Z" fill="#FAFFF3"/>
<path d="M28.978 30.4833C27.6772 30.4833 26.5765 30.2387 25.6759 29.7495C24.7753 29.2492 24.0915 28.5876 23.6245 27.7649C23.1687 26.9421 22.9408 26.036 22.9408 25.0464C22.9408 24.1792 23.0853 23.4009 23.3744 22.7116C23.6634 22.0111 24.1082 21.4107 24.7086 20.9104C25.309 20.399 26.0873 19.982 27.0434 19.6596C27.7661 19.4261 28.6111 19.2149 29.5784 19.0258C30.5568 18.8368 31.6131 18.6645 32.7472 18.5088C33.8923 18.3421 35.0876 18.1642 36.3328 17.9752L34.8986 18.7924C34.9097 17.5471 34.6317 16.6298 34.0647 16.0406C33.4976 15.4513 32.5415 15.1567 31.1961 15.1567C30.3845 15.1567 29.6007 15.3457 28.8446 15.7237C28.0886 16.1017 27.5604 16.7521 27.2602 17.675L23.5912 16.5242C24.0359 15.001 24.8809 13.778 26.1262 12.8551C27.3825 11.9323 29.0725 11.4709 31.1961 11.4709C32.7972 11.4709 34.2037 11.7322 35.4156 12.2548C36.6386 12.7773 37.5447 13.6334 38.134 14.8231C38.4564 15.4568 38.651 16.1073 38.7177 16.7744C38.7844 17.4304 38.8178 18.1475 38.8178 18.9258V29.983H35.2988V26.0804L35.8825 26.7142C35.0709 28.015 34.1203 28.9712 33.0307 29.5827C31.9522 30.1831 30.6013 30.4833 28.978 30.4833ZM29.7786 27.2812C30.6903 27.2812 31.4685 27.12 32.1134 26.7976C32.7583 26.4752 33.2697 26.0804 33.6477 25.6135C34.0369 25.1465 34.2982 24.7073 34.4316 24.2959C34.6428 23.7845 34.7596 23.2008 34.7818 22.5448C34.8152 21.8777 34.8319 21.3385 34.8319 20.9271L36.066 21.294C34.8541 21.483 33.8145 21.6498 32.9473 21.7943C32.0801 21.9389 31.3351 22.0778 30.7125 22.2113C30.0899 22.3336 29.5395 22.4725 29.0614 22.6282C28.5944 22.795 28.1997 22.9895 27.8773 23.2119C27.5549 23.4343 27.3047 23.69 27.1268 23.9791C26.96 24.2682 26.8767 24.6073 26.8767 24.9964C26.8767 25.4411 26.9878 25.8358 27.2102 26.1805C27.4326 26.5141 27.755 26.7809 28.1775 26.981C28.6111 27.1812 29.1448 27.2812 29.7786 27.2812Z" fill="#FAFFF3"/>
<path d="M53.7166 29.983C52.5269 30.2054 51.3595 30.2999 50.2143 30.2665C49.0802 30.2443 48.0629 30.0386 47.1623 29.6494C46.2617 29.2492 45.5779 28.621 45.111 27.7649C44.6996 26.9866 44.4828 26.1916 44.4605 25.38C44.4383 24.5684 44.4272 23.6511 44.4272 22.6282V6.96797H48.4298V22.3947C48.4298 23.1174 48.4353 23.7511 48.4465 24.2959C48.4687 24.8407 48.5854 25.2855 48.7967 25.6302C49.197 26.2973 49.8363 26.6697 50.7146 26.7476C51.593 26.8254 52.5936 26.7809 53.7166 26.6141V29.983ZM41.1584 15.1233V11.9712H53.7166V15.1233H41.1584Z" fill="#FAFFF3"/>
<path d="M64.3441 30.5C63.0099 30.5 61.9092 30.2776 61.0419 29.8329C60.1747 29.3882 59.4854 28.8211 58.9739 28.1318C58.4625 27.4424 58.0844 26.7086 57.8398 25.9304C57.5952 25.1521 57.434 24.4183 57.3562 23.7289C57.2895 23.0285 57.2561 22.4614 57.2561 22.0278V11.9712H61.3254V20.6436C61.3254 21.1995 61.3644 21.8277 61.4422 22.5281C61.52 23.2175 61.6979 23.8846 61.9759 24.5294C62.265 25.1632 62.6874 25.6857 63.2434 26.0971C63.8104 26.5085 64.572 26.7142 65.5282 26.7142C66.0396 26.7142 66.5455 26.6308 67.0458 26.464C67.5462 26.2973 67.9965 26.0137 68.3967 25.6135C68.8081 25.2021 69.1361 24.6406 69.3807 23.929C69.6253 23.2175 69.7476 22.3169 69.7476 21.2273L72.1325 22.2446C72.1325 23.7789 71.8323 25.1687 71.2319 26.414C70.6426 27.6593 69.7699 28.6544 68.6135 29.3993C67.4572 30.1331 66.0341 30.5 64.3441 30.5ZM70.2313 29.983V24.396H69.7476V11.9712H73.7836V29.983H70.2313Z" fill="#FAFFF3"/>
<path d="M78.4692 29.983V11.9712H82.0215V16.3574L81.5879 15.7904C81.8103 15.19 82.1049 14.6452 82.4718 14.156C82.8498 13.6557 83.3001 13.2443 83.8227 12.9219C84.2674 12.6217 84.7566 12.3882 85.2903 12.2214C85.8351 12.0435 86.391 11.9379 86.9581 11.9045C87.5251 11.8601 88.0755 11.8823 88.6091 11.9712V15.7237C88.0755 15.568 87.4584 15.518 86.7579 15.5736C86.0686 15.6292 85.446 15.8238 84.8901 16.1573C84.3341 16.4575 83.8783 16.8411 83.5225 17.3081C83.1778 17.775 82.9221 18.3087 82.7553 18.9091C82.5885 19.4984 82.5052 20.1377 82.5052 20.827V29.983H78.4692Z" fill="#FAFFF3"/>
<path d="M99.6546 30.4833C97.8312 30.4833 96.2302 30.0886 94.8515 29.2992C93.4728 28.5098 92.3943 27.4147 91.6161 26.0137C90.8489 24.6128 90.4653 23.0007 90.4653 21.1772C90.4653 19.2093 90.8433 17.5026 91.5994 16.0572C92.3554 14.6007 93.4061 13.4722 94.7514 12.6717C96.0968 11.8712 97.6533 11.4709 99.4212 11.4709C101.289 11.4709 102.873 11.9101 104.174 12.7884C105.486 13.6557 106.459 14.8843 107.093 16.4742C107.727 18.0641 107.966 19.9375 107.81 22.0945H103.824V20.6269C103.813 18.6701 103.468 17.2413 102.79 16.3408C102.112 15.4402 101.044 14.9899 99.5879 14.9899C97.9424 14.9899 96.7194 15.5013 95.9189 16.5242C95.1183 17.536 94.7181 19.0203 94.7181 20.9771C94.7181 22.8005 95.1183 24.2126 95.9189 25.2132C96.7194 26.2139 97.8868 26.7142 99.4212 26.7142C100.411 26.7142 101.261 26.4974 101.973 26.0638C102.696 25.619 103.251 24.9797 103.641 24.1459L107.61 25.3466C106.92 26.9699 105.853 28.2319 104.408 29.1324C102.973 30.033 101.389 30.4833 99.6546 30.4833ZM93.4506 22.0945V19.0592H105.842V22.0945H93.4506Z" fill="#FAFFF3"/>
<path d="M120.42 30.4833C118.664 30.4833 117.079 30.1776 115.667 29.5661C114.266 28.9545 113.11 28.0818 112.198 26.9477C111.298 25.8025 110.725 24.446 110.48 22.8784L114.65 22.2446C115.006 23.6678 115.734 24.7685 116.835 25.5468C117.946 26.3251 119.225 26.7142 120.67 26.7142C121.527 26.7142 122.333 26.5808 123.089 26.3139C123.845 26.0471 124.456 25.658 124.923 25.1465C125.401 24.6351 125.64 24.0069 125.64 23.2619C125.64 22.9284 125.585 22.6226 125.474 22.3447C125.362 22.0556 125.196 21.7999 124.973 21.5775C124.762 21.3551 124.484 21.155 124.139 20.9771C123.806 20.7881 123.417 20.6269 122.972 20.4935L116.768 18.6589C116.234 18.5033 115.656 18.2976 115.033 18.0419C114.422 17.775 113.838 17.4137 113.282 16.9578C112.737 16.4909 112.287 15.9016 111.931 15.19C111.587 14.4673 111.414 13.5778 111.414 12.5216C111.414 10.9761 111.804 9.68085 112.582 8.63573C113.371 7.57948 114.427 6.79008 115.751 6.26751C117.085 5.74495 118.564 5.48923 120.187 5.50035C121.832 5.51147 123.3 5.79498 124.59 6.3509C125.879 6.8957 126.958 7.69067 127.825 8.73579C128.692 9.78092 129.304 11.0429 129.66 12.5216L125.34 13.2721C125.162 12.4271 124.818 11.71 124.306 11.1207C123.806 10.5203 123.189 10.0644 122.455 9.75312C121.732 9.44181 120.96 9.27503 120.137 9.2528C119.336 9.24168 118.591 9.36398 117.902 9.6197C117.224 9.86431 116.673 10.2201 116.251 10.6871C115.84 11.154 115.634 11.6988 115.634 12.3215C115.634 12.9107 115.812 13.3944 116.167 13.7724C116.523 14.1393 116.962 14.434 117.485 14.6563C118.019 14.8676 118.558 15.0455 119.103 15.19L123.406 16.3908C123.995 16.5464 124.656 16.7577 125.39 17.0245C126.124 17.2914 126.83 17.6638 127.508 18.1419C128.186 18.62 128.742 19.2482 129.176 20.0265C129.621 20.8048 129.843 21.7943 129.843 22.9951C129.843 24.2404 129.582 25.3355 129.059 26.2806C128.548 27.2145 127.853 27.9928 126.975 28.6154C126.096 29.2381 125.09 29.705 123.956 30.0164C122.833 30.3277 121.654 30.4833 120.42 30.4833Z" fill="#D3E0BD"/>
<path d="M141.275 30.4833C139.418 30.4833 137.834 30.0719 136.522 29.2492C135.21 28.4153 134.203 27.2812 133.503 25.847C132.814 24.4127 132.463 22.7894 132.452 20.9771C132.463 19.1315 132.825 17.4971 133.536 16.0739C134.259 14.6396 135.282 13.5167 136.605 12.7051C137.928 11.8823 139.501 11.4709 141.325 11.4709C143.371 11.4709 145.099 11.9879 146.512 13.0219C147.935 14.0448 148.863 15.4457 149.297 17.2247L145.294 18.3087C144.983 17.3414 144.466 16.5909 143.743 16.0572C143.02 15.5124 142.198 15.24 141.275 15.24C140.23 15.24 139.368 15.4902 138.69 15.9905C138.012 16.4797 137.511 17.158 137.189 18.0252C136.866 18.8924 136.705 19.8764 136.705 20.9771C136.705 22.6893 137.089 24.0736 137.856 25.1298C138.623 26.1861 139.763 26.7142 141.275 26.7142C142.342 26.7142 143.182 26.4696 143.793 25.9804C144.416 25.4912 144.883 24.7852 145.194 23.8623L149.297 24.7796C148.741 26.6141 147.768 28.0262 146.378 29.0157C144.988 29.9941 143.287 30.4833 141.275 30.4833Z" fill="#D3E0BD"/>
<path d="M160.105 30.4833C158.304 30.4833 156.731 30.0775 155.386 29.2659C154.04 28.4542 152.995 27.3368 152.25 25.9137C151.516 24.4794 151.149 22.8339 151.149 20.9771C151.149 19.087 151.527 17.4304 152.284 16.0072C153.04 14.5841 154.09 13.4722 155.436 12.6717C156.781 11.8712 158.337 11.4709 160.105 11.4709C161.918 11.4709 163.496 11.8767 164.842 12.6884C166.187 13.5 167.232 14.623 167.977 16.0572C168.722 17.4804 169.094 19.1204 169.094 20.9771C169.094 22.845 168.716 24.4961 167.96 25.9304C167.215 27.3535 166.17 28.4709 164.825 29.2825C163.48 30.0831 161.906 30.4833 160.105 30.4833ZM160.105 26.7142C161.706 26.7142 162.896 26.1805 163.674 25.1132C164.453 24.0458 164.842 22.6671 164.842 20.9771C164.842 19.2315 164.447 17.8417 163.658 16.8077C162.868 15.7626 161.684 15.24 160.105 15.24C159.027 15.24 158.137 15.4846 157.437 15.9739C156.748 16.4519 156.236 17.1246 155.903 17.9918C155.569 18.848 155.402 19.843 155.402 20.9771C155.402 22.7227 155.797 24.1181 156.586 25.1632C157.387 26.1972 158.56 26.7142 160.105 26.7142Z" fill="#D3E0BD"/>
<path d="M179.523 30.5C178.189 30.5 177.089 30.2776 176.221 29.8329C175.354 29.3882 174.665 28.8211 174.153 28.1318C173.642 27.4424 173.264 26.7086 173.019 25.9304C172.775 25.1521 172.613 24.4183 172.536 23.7289C172.469 23.0285 172.435 22.4614 172.435 22.0278V11.9712H176.505V20.6436C176.505 21.1995 176.544 21.8277 176.622 22.5281C176.699 23.2175 176.877 23.8846 177.155 24.5294C177.444 25.1632 177.867 25.6857 178.423 26.0971C178.99 26.5085 179.751 26.7142 180.708 26.7142C181.219 26.7142 181.725 26.6308 182.225 26.464C182.726 26.2973 183.176 26.0137 183.576 25.6135C183.987 25.2021 184.315 24.6406 184.56 23.929C184.805 23.2175 184.927 22.3169 184.927 21.2273L187.312 22.2446C187.312 23.7789 187.012 25.1687 186.411 26.414C185.822 27.6593 184.949 28.6544 183.793 29.3993C182.637 30.1331 181.213 30.5 179.523 30.5ZM185.411 29.983V24.396H184.927V11.9712H188.963V29.983H185.411Z" fill="#D3E0BD"/>
<path d="M204.205 29.983C203.016 30.2054 201.848 30.2999 200.703 30.2665C199.569 30.2443 198.552 30.0386 197.651 29.6494C196.751 29.2492 196.067 28.621 195.6 27.7649C195.188 26.9866 194.972 26.1916 194.949 25.38C194.927 24.5684 194.916 23.6511 194.916 22.6282V6.96797H198.919V22.3947C198.919 23.1174 198.924 23.7511 198.935 24.2959C198.958 24.8407 199.074 25.2855 199.286 25.6302C199.686 26.2973 200.325 26.6697 201.203 26.7476C202.082 26.8254 203.082 26.7809 204.205 26.6141V29.983ZM191.647 15.1233V11.9712H204.205V15.1233H191.647Z" fill="#D3E0BD"/>
</svg>
