<svg width="226" height="36" viewBox="0 0 226 36" fill="none" xmlns="http://www.w3.org/2000/svg">
<g clip-path="url(#clip0_1_144)">
<path d="M0.167358 29.983V5.96732H4.23668L15.3773 22.895V5.96732H19.4466V29.983H15.3773L4.23668 13.0553V29.983H0.167358Z" fill="#637047"/>
<path d="M29.1454 30.4833C27.8445 30.4833 26.7438 30.2387 25.8432 29.7495C24.9426 29.2492 24.2589 28.5876 23.7919 27.7649C23.336 26.9421 23.1081 26.036 23.1081 25.0464C23.1081 24.1792 23.2527 23.4009 23.5417 22.7116C23.8308 22.0111 24.2755 21.4107 24.8759 20.9104C25.4763 20.399 26.2546 19.982 27.2108 19.6596C27.9335 19.4261 28.7785 19.2149 29.7458 19.0258C30.7242 18.8368 31.7804 18.6645 32.9145 18.5088C34.0597 18.3421 35.2549 18.1642 36.5002 17.9752L35.0659 18.7924C35.077 17.5471 34.7991 16.6298 34.232 16.0406C33.665 15.4513 32.7088 15.1567 31.3635 15.1567C30.5519 15.1567 29.768 15.3457 29.012 15.7237C28.2559 16.1017 27.7278 16.7521 27.4276 17.675L23.7585 16.5242C24.2033 15.001 25.0483 13.778 26.2935 12.8551C27.5499 11.9323 29.2399 11.4709 31.3635 11.4709C32.9646 11.4709 34.371 11.7322 35.5829 12.2548C36.8059 12.7773 37.7121 13.6334 38.3014 14.8231C38.6238 15.4568 38.8184 16.1073 38.8851 16.7744C38.9518 17.4304 38.9851 18.1475 38.9851 18.9258V29.983H35.4662V26.0804L36.0499 26.7142C35.2383 28.015 34.2876 28.9712 33.198 29.5827C32.1196 30.1831 30.7687 30.4833 29.1454 30.4833ZM29.9459 27.2812C30.8576 27.2812 31.6359 27.12 32.2808 26.7976C32.9256 26.4752 33.4371 26.0804 33.8151 25.6135C34.2042 25.1465 34.4655 24.7073 34.5989 24.2959C34.8102 23.7845 34.9269 23.2008 34.9492 22.5448C34.9825 21.8777 34.9992 21.3385 34.9992 20.9271L36.2333 21.294C35.0214 21.483 33.9819 21.6498 33.1146 21.7943C32.2474 21.9389 31.5025 22.0778 30.8799 22.2113C30.2572 22.3336 29.7069 22.4725 29.2288 22.6282C28.7618 22.795 28.3671 22.9895 28.0447 23.2119C27.7222 23.4343 27.4721 23.69 27.2942 23.9791C27.1274 24.2682 27.044 24.6073 27.044 24.9964C27.044 25.4411 27.1552 25.8358 27.3776 26.1805C27.5999 26.5141 27.9224 26.7809 28.3449 26.981C28.7785 27.1812 29.3122 27.2812 29.9459 27.2812Z" fill="#637047"/>
<path d="M53.8839 29.983C52.6943 30.2054 51.5268 30.2999 50.3816 30.2665C49.2476 30.2443 48.2302 30.0386 47.3297 29.6494C46.4291 29.2492 45.7453 28.621 45.2783 27.7649C44.8669 26.9866 44.6501 26.1916 44.6279 25.38C44.6057 24.5684 44.5945 23.6511 44.5945 22.6282V6.96797H48.5971V22.3947C48.5971 23.1174 48.6027 23.7512 48.6138 24.2959C48.6361 24.8407 48.7528 25.2855 48.9641 25.6302C49.3643 26.2973 50.0036 26.6697 50.882 26.7476C51.7603 26.8254 52.761 26.7809 53.8839 26.6141V29.983ZM41.3257 15.1233V11.9712H53.8839V15.1233H41.3257Z" fill="#637047"/>
<path d="M64.5114 30.5C63.1772 30.5 62.0765 30.2776 61.2093 29.8329C60.3421 29.3882 59.6527 28.8211 59.1413 28.1318C58.6298 27.4424 58.2518 26.7086 58.0072 25.9304C57.7626 25.1521 57.6014 24.4183 57.5235 23.7289C57.4568 23.0285 57.4235 22.4614 57.4235 22.0278V11.9712H61.4928V20.6436C61.4928 21.1995 61.5317 21.8277 61.6095 22.5281C61.6874 23.2175 61.8653 23.8846 62.1432 24.5294C62.4323 25.1632 62.8548 25.6857 63.4107 26.0971C63.9778 26.5085 64.7394 26.7142 65.6955 26.7142C66.207 26.7142 66.7129 26.6308 67.2132 26.464C67.7135 26.2973 68.1638 26.0137 68.5641 25.6135C68.9755 25.2021 69.3035 24.6406 69.5481 23.929C69.7927 23.2175 69.915 22.3169 69.915 21.2273L72.2999 22.2446C72.2999 23.7789 71.9997 25.1687 71.3993 26.414C70.81 27.6593 69.9372 28.6544 68.7809 29.3993C67.6246 30.1331 66.2014 30.5 64.5114 30.5ZM70.3986 29.983V24.396H69.915V11.9712H73.9509V29.983H70.3986Z" fill="#637047"/>
<path d="M78.6366 29.983V11.9712H82.1889V16.3574L81.7552 15.7904C81.9776 15.19 82.2723 14.6452 82.6392 14.156C83.0172 13.6557 83.4675 13.2443 83.99 12.9219C84.4348 12.6217 84.924 12.3882 85.4577 12.2214C86.0025 12.0435 86.5584 11.9379 87.1254 11.9045C87.6925 11.8601 88.2428 11.8823 88.7765 11.9712V15.7237C88.2428 15.568 87.6258 15.518 86.9253 15.5736C86.236 15.6292 85.6133 15.8238 85.0574 16.1573C84.5015 16.4575 84.0456 16.8411 83.6898 17.3081C83.3452 17.775 83.0895 18.3087 82.9227 18.9091C82.7559 19.4984 82.6725 20.1377 82.6725 20.827V29.983H78.6366Z" fill="#637047"/>
<path d="M99.822 30.4833C97.9986 30.4833 96.3975 30.0886 95.0189 29.2992C93.6402 28.5098 92.5617 27.4147 91.7834 26.0137C91.0162 24.6128 90.6327 23.0007 90.6327 21.1772C90.6327 19.2093 91.0107 17.5026 91.7667 16.0572C92.5228 14.6007 93.5735 13.4722 94.9188 12.6717C96.2641 11.8712 97.8207 11.4709 99.5885 11.4709C101.456 11.4709 103.041 11.9101 104.342 12.7884C105.654 13.6557 106.626 14.8843 107.26 16.4742C107.894 18.0641 108.133 19.9375 107.977 22.0945H103.991V20.6269C103.98 18.6701 103.636 17.2413 102.957 16.3408C102.279 15.4402 101.212 14.9899 99.7553 14.9899C98.1098 14.9899 96.8867 15.5013 96.0862 16.5242C95.2857 17.536 94.8854 19.0203 94.8854 20.9771C94.8854 22.8005 95.2857 24.2126 96.0862 25.2132C96.8867 26.2139 98.0542 26.7142 99.5885 26.7142C100.578 26.7142 101.429 26.4974 102.14 26.0638C102.863 25.619 103.419 24.9797 103.808 24.1459L107.777 25.3466C107.088 26.9699 106.02 28.2319 104.575 29.1324C103.141 30.033 101.556 30.4833 99.822 30.4833ZM93.6179 22.0945V19.0592H106.009V22.0945H93.6179Z" fill="#637047"/>
<path d="M120.588 30.4833C118.831 30.4833 117.247 30.1776 115.835 29.5661C114.434 28.9545 113.277 28.0818 112.366 26.9477C111.465 25.8025 110.892 24.446 110.648 22.8784L114.817 22.2446C115.173 23.6678 115.901 24.7685 117.002 25.5468C118.114 26.3251 119.392 26.7142 120.838 26.7142C121.694 26.7142 122.5 26.5808 123.256 26.3139C124.012 26.0471 124.624 25.6579 125.091 25.1465C125.569 24.6351 125.808 24.0069 125.808 23.2619C125.808 22.9284 125.752 22.6226 125.641 22.3447C125.53 22.0556 125.363 21.7999 125.141 21.5775C124.929 21.3551 124.651 21.155 124.307 20.9771C123.973 20.7881 123.584 20.6269 123.139 20.4935L116.935 18.6589C116.402 18.5033 115.823 18.2976 115.201 18.0419C114.589 17.775 114.006 17.4137 113.45 16.9578C112.905 16.4909 112.455 15.9016 112.099 15.19C111.754 14.4673 111.582 13.5778 111.582 12.5216C111.582 10.9761 111.971 9.68085 112.749 8.63573C113.539 7.57948 114.595 6.79008 115.918 6.26752C117.252 5.74495 118.731 5.48923 120.354 5.50035C122 5.51147 123.467 5.79498 124.757 6.3509C126.047 6.8957 127.125 7.69067 127.992 8.73579C128.86 9.78092 129.471 11.0429 129.827 12.5216L125.508 13.2721C125.33 12.4271 124.985 11.71 124.473 11.1207C123.973 10.5203 123.356 10.0644 122.622 9.75312C121.9 9.44181 121.127 9.27503 120.304 9.2528C119.504 9.24168 118.759 9.36398 118.069 9.6197C117.391 9.86431 116.841 10.2201 116.418 10.6871C116.007 11.154 115.801 11.6988 115.801 12.3215C115.801 12.9107 115.979 13.3944 116.335 13.7724C116.691 14.1393 117.13 14.434 117.652 14.6563C118.186 14.8676 118.725 15.0455 119.27 15.19L123.573 16.3908C124.162 16.5464 124.824 16.7577 125.558 17.0245C126.291 17.2914 126.997 17.6638 127.676 18.1419C128.354 18.62 128.91 19.2482 129.343 20.0265C129.788 20.8048 130.01 21.7943 130.01 22.9951C130.01 24.2404 129.749 25.3355 129.227 26.2806C128.715 27.2145 128.02 27.9928 127.142 28.6154C126.264 29.2381 125.257 29.705 124.123 30.0164C123 30.3277 121.822 30.4833 120.588 30.4833Z" fill="#9BA881"/>
<path d="M141.442 30.4833C139.585 30.4833 138.001 30.0719 136.689 29.2492C135.377 28.4153 134.371 27.2812 133.67 25.847C132.981 24.4127 132.631 22.7894 132.62 20.9771C132.631 19.1315 132.992 17.4971 133.704 16.0739C134.426 14.6396 135.449 13.5167 136.772 12.7051C138.096 11.8823 139.669 11.4709 141.492 11.4709C143.538 11.4709 145.267 11.9879 146.679 13.0219C148.102 14.0448 149.03 15.4457 149.464 17.2247L145.461 18.3087C145.15 17.3414 144.633 16.5909 143.91 16.0572C143.188 15.5124 142.365 15.24 141.442 15.24C140.397 15.24 139.535 15.4902 138.857 15.9905C138.179 16.4797 137.679 17.158 137.356 18.0252C137.034 18.8924 136.872 19.8764 136.872 20.9771C136.872 22.6893 137.256 24.0736 138.023 25.1298C138.79 26.1861 139.93 26.7142 141.442 26.7142C142.509 26.7142 143.349 26.4696 143.96 25.9804C144.583 25.4912 145.05 24.7852 145.361 23.8623L149.464 24.7796C148.908 26.6141 147.935 28.0262 146.545 29.0157C145.156 29.9941 143.455 30.4833 141.442 30.4833Z" fill="#9BA881"/>
<path d="M160.273 30.4833C158.471 30.4833 156.898 30.0775 155.553 29.2659C154.208 28.4542 153.162 27.3368 152.418 25.9137C151.684 24.4794 151.317 22.8339 151.317 20.9771C151.317 19.087 151.695 17.4304 152.451 16.0072C153.207 14.5841 154.258 13.4722 155.603 12.6717C156.948 11.8712 158.505 11.4709 160.273 11.4709C162.085 11.4709 163.664 11.8767 165.009 12.6884C166.354 13.5 167.4 14.623 168.144 16.0572C168.889 17.4804 169.262 19.1203 169.262 20.9771C169.262 22.845 168.884 24.4961 168.128 25.9304C167.383 27.3535 166.338 28.4709 164.992 29.2825C163.647 30.0831 162.074 30.4833 160.273 30.4833ZM160.273 26.7142C161.874 26.7142 163.063 26.1805 163.842 25.1131C164.62 24.0458 165.009 22.6671 165.009 20.9771C165.009 19.2315 164.614 17.8417 163.825 16.8077C163.036 15.7626 161.851 15.24 160.273 15.24C159.194 15.24 158.305 15.4846 157.604 15.9739C156.915 16.4519 156.403 17.1246 156.07 17.9918C155.736 18.8479 155.57 19.843 155.57 20.9771C155.57 22.7227 155.964 24.1181 156.754 25.1632C157.554 26.1972 158.727 26.7142 160.273 26.7142Z" fill="#9BA881"/>
<path d="M179.691 30.5C178.357 30.5 177.256 30.2776 176.389 29.8329C175.521 29.3882 174.832 28.8211 174.321 28.1318C173.809 27.4424 173.431 26.7086 173.187 25.9304C172.942 25.1521 172.781 24.4183 172.703 23.7289C172.636 23.0285 172.603 22.4614 172.603 22.0278V11.9712H176.672V20.6436C176.672 21.1995 176.711 21.8277 176.789 22.5281C176.867 23.2175 177.045 23.8846 177.323 24.5294C177.612 25.1632 178.034 25.6857 178.59 26.0971C179.157 26.5085 179.919 26.7142 180.875 26.7142C181.386 26.7142 181.892 26.6308 182.393 26.464C182.893 26.2973 183.343 26.0137 183.743 25.6135C184.155 25.2021 184.483 24.6406 184.727 23.929C184.972 23.2175 185.094 22.3169 185.094 21.2273L187.479 22.2446C187.479 23.7789 187.179 25.1687 186.579 26.414C185.989 27.6593 185.117 28.6544 183.96 29.3993C182.804 30.1331 181.381 30.5 179.691 30.5ZM185.578 29.983V24.396H185.094V11.9712H189.13V29.983H185.578Z" fill="#9BA881"/>
<path d="M204.373 29.983C203.183 30.2054 202.016 30.2999 200.871 30.2665C199.736 30.2443 198.719 30.0386 197.819 29.6494C196.918 29.2492 196.234 28.621 195.767 27.7649C195.356 26.9866 195.139 26.1916 195.117 25.38C195.095 24.5684 195.083 23.6511 195.083 22.6282V6.96797H199.086V22.3947C199.086 23.1174 199.092 23.7512 199.103 24.2959C199.125 24.8407 199.242 25.2855 199.453 25.6302C199.853 26.2973 200.492 26.6697 201.371 26.7476C202.249 26.8254 203.25 26.7809 204.373 26.6141V29.983ZM191.815 15.1233V11.9712H204.373V15.1233H191.815Z" fill="#9BA881"/>
</g>
<defs>
<clipPath id="clip0_1_144">
<rect width="225" height="36" fill="white" transform="translate(0.167358)"/>
</clipPath>
</defs>
</svg>
